<svg xmlns="http://www.w3.org/2000/svg" width="29.688" height="40.625"><path d="M14.777.51C7.483.503.497.787.497 25.086c0 10.95 8.799 15.032 14.347 15.032 5.545 0 14.347-4.081 14.347-15.032C29.19.816 22.07.516 14.777.51zm.752 1.358c5.643.012 10.927.236 12.063 16.153-3.86 1.805-7.916 2.765-12.063 2.86v-2.966a1.828 1.828 0 001.48-1.782V7.177a1.83 1.83 0 00-1.48-1.784zm-1.027 4.855h.685c.249 0 .453.205.453.454v8.956a.451.451 0 01-.453.449h-.685a.45.45 0 01-.452-.45V7.178c0-.25.203-.454.452-.454zm-.345-4.855v3.525a1.828 1.828 0 00-1.48 1.784v8.956c0 .873.635 1.62 1.48 1.782v2.966c-6.311-.148-10.905-2.252-12.063-2.84C3.224 2.102 8.512 1.88 14.157 1.869zm.687 36.875c-5.016 0-12.976-3.707-12.976-13.658 0-1.983.045-3.853.134-5.563 2.003.929 6.696 2.74 12.868 2.74 4.394 0 8.704-.934 12.813-2.771.089 1.718.135 3.6.135 5.595 0 9.95-7.958 13.657-12.974 13.657z" fill="#4d4d4d" stroke="#4d4d4d"/><path d="M15.766 19.42c0-1.136.115-1.458.678-1.901l.678-.534v-5.28c0-5.272-.001-5.282-.678-5.96-.558-.557-.678-.94-.678-2.156v-1.48H17.3c5.658 0 8.585 3.73 9.719 12.381.498 3.803.503 3.526-.068 3.705-.26.082-1.528.512-2.817.956-2.037.702-4.048 1.113-7.488 1.53l-.881.106V19.42zm-1.437-3.109c-.105-.105-.19-2.231-.19-4.726 0-3.984.055-4.557.452-4.71.248-.095.557-.068.685.06.127.127.199 2.296.158 4.819-.064 3.886-.14 4.598-.495 4.667-.231.044-.506-.005-.61-.11h0z" fill="#fff" stroke="#fff" stroke-width=".271"/><path d="M13.284 38.414c-3.064-.421-6.777-2.475-8.457-4.678-2.16-2.83-3.114-6.738-2.77-11.33l.193-2.576 2.08.735c3.527 1.248 6.338 1.72 10.215 1.715 4.172-.006 6.643-.39 10.259-1.592 2.179-.724 2.692-.815 2.813-.5.082.213.087 2.12.012 4.239-.107 2.986-.267 4.213-.713 5.457-1.45 4.042-4.402 6.844-8.438 8.012-2.315.67-3.343.772-5.194.518z" fill="#fff" stroke="#fff" stroke-width=".271"/><path d="M11.584 20.533c-2.457-.285-5.291-.977-7.48-1.827a58.55 58.55 0 01-1.83-.73c-.152-.105.767-6.243 1.169-7.805C4.864 4.65 7.747 2.11 12.597 2.11h1.542v1.627c0 1.237-.094 1.627-.392 1.627-.215 0-.581.271-.813.602-.346.494-.422 1.528-.422 5.722v5.12l.813.76c.676.63.814.97.814 2.006 0 .836-.112 1.236-.34 1.212-.186-.02-1.183-.134-2.215-.253h0z" fill="#fff" stroke="#fff" stroke-width=".271"/></svg>