<svg xmlns="http://www.w3.org/2000/svg" width="76.664" height="128.251"><path d="M76.15 75.73c1.314-14.006-14.006-15.32-14.006-15.32-4.374-12.69-15.754-6.125-15.754-6.125-5.689-12.692-17.068-3.94-17.068-3.94-1.41-.418-3.709-43.714-4.908-43.906C23.44 1.902 14.01-6.894 12.51 9.606c0 36.5-1.135 47.304-1.135 47.304C9.187 62.162 5.31 75.292 5.31 75.292-3.007 84.482.932 91.048.932 91.048c7.002 12.255 21.385 28.449 21.385 28.449 6.13 5.252 2.627 8.316 2.627 8.316l42.455.438 2.334-7.878C79.361 101.99 76.15 75.73 76.15 75.73z" fill="#fff"/></svg>