<svg xmlns="http://www.w3.org/2000/svg" width="76.664" height="133.417"><path d="M18.652 0C12.358 0 7.257 5.102 7.257 11.395c0 6.293 5.102 11.395 11.396 11.395 6.293 0 11.395-5.102 11.395-11.395C30.048 5.102 24.945 0 18.652 0zm0 20.43a9.037 9.037 0 01-9.036-9.036 9.036 9.036 0 119.036 9.036z" fill="#fff" fill-rule="evenodd"/><path d="M76.15 80.896c1.314-14.006-14.006-15.319-14.006-15.319C57.77 52.885 46.39 59.45 46.39 59.45c-5.689-12.692-17.068-3.939-17.068-3.939-1.41-.419-3.709-43.715-4.908-43.907C23.44 7.068 14.01-1.728 12.51 14.772c0 36.5-1.135 47.304-1.135 47.304C9.187 67.328 5.31 80.458 5.31 80.458-3.007 89.649.932 96.214.932 96.214c7.002 12.255 21.385 28.449 21.385 28.449 6.13 5.252 2.627 8.316 2.627 8.316l42.455.438 2.334-7.878c9.628-18.382 6.417-44.643 6.417-44.643z" fill="#fff"/><path d="M65.246 98.824c-.68.72-7.15 7.376-7.15 7.376s-.864.922-.864-.297c.002-1.225.002-3.17.002-3.17s-.498.003-1.262.002c-2.353.002-6.936.002-8.692.002 0 0-.078-.007-.163-.047v.132c.016.089.001.16 0 .166v.055s.018.077 0 .17v10.489s2.283.002 3.23 0c.943 0 .077.872.077.872l-7.122 7.362s-.47.583-.963.06c-.677-.723-6.941-7.594-6.941-7.594s-.868-.92.28-.92c1.152.002 2.984.002 2.984.002s-.003-.53-.001-1.34c-.002-2.501-.002-7.372-.002-9.236v-.218a.49.49 0 01-.158.046c-1.756 0-6.34 0-8.697-.002-.76.002-1.26 0-1.26 0l.002 3.17c0 1.218-.864.3-.864.3s-6.467-6.655-7.147-7.378c-.493-.525.055-1.024.055-1.024l6.927-7.567s.824-.924.822.082c.003 1.005.003 3.433.003 3.433l1.403-.005c2.44.005 6.873.003 8.678.002 0 0 .117-.031.237.027V82.997S36.83 83 35.678 83c-1.146-.001-.28-.918-.28-.918s6.261-6.873 6.942-7.596c.495-.523.965.058.965.058l7.12 7.361s.87.875-.076.872c-.945.003-3.23.003-3.23.003l.004 1.492c-.001 1.284-.003 5.42-.003 9.503.121-.062.24-.028.24-.028h8.677c.85-.002 1.404 0 1.404 0v-3.431c0-1.003.82-.082.82-.082l6.928 7.566c0 .001.546.501.059 1.025z" fill="#6cf"/></svg>