<svg xmlns="http://www.w3.org/2000/svg" width="99.002" height="101.578"><path d="M48.833 0c-5.85 0-10.591 4.862-10.591 10.86 0 5.997 4.742 10.86 10.592 10.86 5.849 0 10.591-4.863 10.591-10.86C59.425 4.862 54.682 0 48.833 0zm0 19.47c-4.637 0-8.399-3.856-8.399-8.611 0-4.755 3.762-8.61 8.399-8.61 4.637 0 8.398 3.855 8.398 8.61 0 4.755-3.76 8.611-8.398 8.611zM27.155 39.322c-5.458 0-9.88 4.703-9.88 10.504 0 5.801 4.423 10.504 9.88 10.504 5.457 0 9.881-4.703 9.881-10.504 0-5.801-4.425-10.504-9.881-10.504zm0 18.833c-4.326 0-7.835-3.73-7.835-8.33 0-4.599 3.509-8.329 7.835-8.329 4.326 0 7.834 3.73 7.834 8.329 0 4.6-3.508 8.33-7.834 8.33z" fill="#fff" fill-rule="evenodd"/><path d="M93.395 94.93l-1.888 6.648-38.778-.368s2.83-2.586-2.125-7.016c0 0-10.822-5.226-18.506-18.097 0 0-6.31-6.742-6.092-9.206-.583-4.409-1.21-6.955-1.716-8.535-1.063-4.04-1.553-2.845-1.553-7.228 2.453-14.334 10.87 1.81 12.764 5.488 0 0 6.306 7.578 9.063 9.283 8.852-2.291 3.04-22.11 3.661-23.668 0 0-1.25-10.044-2.822-23.065C41.408 3.604 53.69-.461 57.039 16.073c1.546 7.344 3.687 19.527 4.484 19.774 0 0 8.395-7.385 12.995 3.323 0 0 9.202-5.539 12.742 5.17 0 0 12.388 1.108 11.327 12.925 0 0 2.595 22.156-5.192 37.666z" fill="#fff"/><path d="M36.858 10.535l-5.731 12.512s-.667 1.516-1.19.316c-.53-1.196-1.801-4.093-1.801-4.093s-.775.28-1.962.712c-3.412 1.226-9.619 3.462-12.146 4.37 0 0-.61.414-1.02-.532-.42-.944-3.78-8.603-4.08-9.28-.294-.674.29-.867.29-.867 2.455-.887 8.865-3.196 12.168-4.381 1.058-.383 1.763-.632 1.763-.632s-1.027-2.325-1.664-3.782c-.637-1.455 1.05-.792 1.05-.792S35.068 8.762 36.4 9.28c.963.383.457 1.254.457 1.254zM.129 39.22l5.456-12.826s.638-1.56 1.134-.354c.532 1.24 1.772 4.18 1.772 4.18s.744-.283 1.913-.743c3.26-1.276 9.248-3.58 11.693-4.536 0 0 .567-.425.992.567.39.957 3.685 8.752 4.004 9.46.284.674-.283.887-.283.887-2.374.92-8.54 3.33-11.729 4.535-1.027.425-1.7.673-1.7.673s.992 2.374 1.63 3.862c.637 1.489-.993.815-.993.815S1.865 41.028.59 40.496c-.956-.39-.46-1.275-.46-1.275z" fill="#d800d8"/></svg>